# author: headus 3D tools
#  using: ply2obj v1.8
#   from: uvlayout v2.09.04
mtllib 0_FLOOR.mtl
# 86 vertices
v 1130.5300 0.0000 -1387.0630
v 868.9846 0.0000 1064.3092
v 800.0005 0.0000 -1387.0630
v -1108.5330 0.0000 400.1810
v 868.9846 0.0000 397.0652
v 1133.8843 0.0000 400.0006
v -281.5201 0.0000 1064.3092
v -281.5201 0.0000 400.0006
v -108.3881 0.0000 -1387.0630
v -1108.5330 0.0000 -920.1806
v -108.3881 0.0000 -880.0000
v 800.0005 0.0000 -880.0000
v 1130.5300 0.0000 -880.0000
v -557.6598 0.0000 400.1810
v -557.6598 0.0000 -920.1808
v -557.6598 0.0000 -1387.0630
v -506.3018 0.0000 400.1810
v -505.7721 0.0000 -920.1806
v -505.7721 0.0000 -1387.0630
v 84.2888 0.0000 1064.3092
v 84.2888 0.0000 400.0006
v 133.7392 0.0000 -880.0000
v 133.7392 0.0000 -1387.0630
v -1108.5330 0.0000 -568.0155
v -557.6598 0.0000 -568.0155
v -505.9171 0.0000 -568.0155
v -108.3875 0.0000 -568.0158
v 133.7395 0.0000 -568.0158
v 818.8868 0.0000 -568.0158
v 1131.4482 0.0000 -568.0158
v -1108.5330 0.0000 -518.7436
v -557.6598 0.0000 -518.7436
v -505.9492 0.0000 -518.7436
v -108.3875 0.0000 -518.7438
v 133.7396 0.0000 -518.7438
v 823.0691 0.0000 -518.7438
v 1131.6517 0.0000 -518.7438
v -557.6598 0.0000 -1040.0003
v -505.7721 0.0000 -1040.0003
v -108.3881 0.0000 -1039.9999
v 133.7392 0.0000 -1039.9999
v 800.0005 0.0000 -1039.9999
v 1130.5300 0.0000 -1039.9999
v 583.0113 0.0000 398.0274
v 583.0111 0.0000 -518.7438
v 583.0111 0.0000 -568.0158
v 583.0110 0.0000 -880.0000
v 583.0110 0.0000 -1039.9999
v 583.0110 0.0000 -1387.0630
v 558.3307 0.0000 1064.3092
v 533.6500 0.0000 398.7094
v 533.6503 0.0000 -518.7438
v 533.6503 0.0000 -568.0158
v 533.6503 0.0000 -880.0000
v 533.6503 0.0000 -1039.9999
v 533.6503 0.0000 -1387.0630
v -1108.5330 0.0000 -168.0156
v -557.6598 0.0000 -168.0156
v -506.0884 0.0000 -168.0156
v -108.3875 0.0000 -168.0156
v 133.7393 0.0000 -168.0156
v 533.6503 0.0000 -168.0158
v 583.0112 0.0000 -168.0158
v 841.2096 0.0000 -168.0158
v 1132.5336 0.0000 -168.0156
v -1108.5330 0.0000 0.1809
v -557.6598 0.0000 0.1809
v -506.1480 0.0000 0.1809
v -108.3881 0.0000 0.1809
v 133.7393 0.0000 0.1809
v 533.6501 0.0000 0.1809
v 583.0112 0.0000 0.1809
v 848.9670 0.0000 0.1809
v 1132.9108 0.0000 0.1809
v 868.9846 0.0000 624.1202
v 558.3307 0.0000 624.1202
v 84.2888 0.0000 624.1202
v -281.5201 0.0000 624.1202
v 868.9846 0.0000 821.9952
v 558.3307 0.0000 821.9952
v 84.2888 0.0000 821.9952
v -281.5201 0.0000 821.9952
v 133.5610 0.0000 1064.3092
v 133.5610 0.0000 821.9952
v 133.5610 0.0000 624.1202
v 133.5610 0.0000 399.8388
# 86 normals
vn 0.000000 1.000000 0.000000
vn 0.000000 1.000000 0.000000
vn 0.000000 1.000000 0.000000
vn 0.000000 1.000000 0.000000
vn 0.000000 1.000000 0.000000
vn 0.000000 1.000000 0.000000
vn 0.000000 1.000000 0.000000
vn 0.000000 1.000000 0.000000
vn 0.000000 1.000000 0.000000
vn 0.000000 1.000000 0.000000
vn 0.000000 1.000000 0.000000
vn 0.000000 1.000000 0.000000
vn 0.000000 1.000000 0.000000
vn 0.000000 1.000000 0.000000
vn 0.000000 1.000000 0.000000
vn 0.000000 1.000000 0.000000
vn 0.000000 1.000000 0.000000
vn 0.000000 1.000000 0.000000
vn 0.000000 1.000000 0.000000
vn 0.000000 1.000000 0.000000
vn 0.000000 1.000000 0.000000
vn 0.000000 1.000000 0.000000
vn 0.000000 1.000000 0.000000
vn 0.000000 1.000000 0.000000
vn 0.000000 1.000000 0.000000
vn 0.000000 1.000000 0.000000
vn 0.000000 1.000000 0.000000
vn 0.000000 1.000000 0.000000
vn 0.000000 1.000000 0.000000
vn 0.000000 1.000000 0.000000
vn 0.000000 1.000000 0.000000
vn 0.000000 1.000000 0.000000
vn 0.000000 1.000000 0.000000
vn 0.000000 1.000000 0.000000
vn 0.000000 1.000000 0.000000
vn 0.000000 1.000000 0.000000
vn 0.000000 1.000000 0.000000
vn 0.000000 1.000000 0.000000
vn 0.000000 1.000000 0.000000
vn 0.000000 1.000000 0.000000
vn 0.000000 1.000000 0.000000
vn 0.000000 1.000000 0.000000
vn 0.000000 1.000000 0.000000
vn 0.000000 1.000000 0.000000
vn 0.000000 1.000000 0.000000
vn 0.000000 1.000000 0.000000
vn 0.000000 1.000000 0.000000
vn 0.000000 1.000000 0.000000
vn 0.000000 1.000000 0.000000
vn 0.000000 1.000000 0.000000
vn 0.000000 1.000000 0.000000
vn 0.000000 1.000000 0.000000
vn 0.000000 1.000000 0.000000
vn 0.000000 1.000000 0.000000
vn 0.000000 1.000000 0.000000
vn 0.000000 1.000000 0.000000
vn 0.000000 1.000000 0.000000
vn 0.000000 1.000000 0.000000
vn 0.000000 1.000000 0.000000
vn 0.000000 1.000000 0.000000
vn 0.000000 1.000000 0.000000
vn 0.000000 1.000000 0.000000
vn 0.000000 1.000000 0.000000
vn 0.000000 1.000000 0.000000
vn 0.000000 1.000000 0.000000
vn 0.000000 1.000000 0.000000
vn 0.000000 1.000000 0.000000
vn 0.000000 1.000000 0.000000
vn 0.000000 1.000000 0.000000
vn 0.000000 1.000000 0.000000
vn 0.000000 1.000000 0.000000
vn 0.000000 1.000000 0.000000
vn 0.000000 1.000000 0.000000
vn 0.000000 1.000000 0.000000
vn 0.000000 1.000000 0.000000
vn 0.000000 1.000000 0.000000
vn 0.000000 1.000000 0.000000
vn 0.000000 1.000000 0.000000
vn 0.000000 1.000000 0.000000
vn 0.000000 1.000000 0.000000
vn 0.000000 1.000000 0.000000
vn 0.000000 1.000000 0.000000
vn 0.000000 1.000000 0.000000
vn 0.000000 1.000000 0.000000
vn 0.000000 1.000000 0.000000
vn 0.000000 1.000000 0.000000
# 86 uv coords
vt 0.514206 0.209028
vt 0.147472 0.207726
vt 0.674691 0.193372
vt 0.434515 0.725575
vt 0.416458 0.208674
vt 0.695140 0.335650
vt 0.674254 0.335569
vt 0.513763 0.334997
vt 0.416014 0.334639
vt 0.139402 0.333648
vt 0.695059 0.355552
vt 0.674194 0.355475
vt 0.513692 0.354898
vt 0.415942 0.354537
vt 0.137641 0.353519
vt 0.674878 0.144982
vt 0.514437 0.144425
vt 0.416683 0.144074
vt 0.147696 0.143135
vt 0.233137 0.723985
vt 0.234558 0.353875
vt 0.234636 0.333992
vt 0.235073 0.208037
vt 0.235303 0.143442
vt 0.253070 0.724333
vt 0.254484 0.353958
vt 0.254562 0.334070
vt 0.254999 0.208115
vt 0.255227 0.143524
vt 0.694580 0.497166
vt 0.673757 0.497094
vt 0.513190 0.496514
vt 0.415436 0.496150
vt 0.253978 0.495549
vt 0.234046 0.495472
vt 0.129801 0.495077
vt 0.694346 0.565084
vt 0.673540 0.565015
vt 0.512945 0.564441
vt 0.415186 0.564071
vt 0.253723 0.563441
vt 0.233792 0.563371
vt 0.126410 0.562956
vt 0.242733 0.815293
vt 0.434135 0.816067
vt 0.242401 0.895172
vt 0.433793 0.895962
vt 0.413898 0.895885
vt 0.414233 0.815992
vt 0.414610 0.725439
vt 0.673047 0.726520
vt 0.582228 0.726155
vt 0.581831 0.816682
vt 0.917462 0.356225
vt 0.916992 0.497828
vt 0.693837 0.726581
vt 0.581484 0.896598
vt 0.916762 0.565730
vt 0.012182 0.494635
vt 0.013055 0.353061
vt 0.417139 0.003951
vt 0.514894 0.004301
vt 0.917547 0.336330
vt 0.916275 0.727228
vt 0.581051 0.994441
vt 0.433360 0.993795
vt 0.011769 0.562506
vt 0.013208 0.333190
vt 0.255675 0.003402
vt 0.675329 0.004851
vt 0.695830 0.145060
vt 0.695621 0.193454
vt 0.918006 0.194153
vt 0.413471 0.993719
vt 0.117306 0.814790
vt 0.117678 0.723145
vt 0.010723 0.723911
vt 0.241983 0.993001
vt 0.116978 0.894657
vt 0.014026 0.207256
vt 0.235748 0.003317
vt 0.696274 0.004925
vt 0.116565 0.992478
vt 0.148148 0.003014
vt 0.014248 0.142683
vt 0.014701 0.002573
# 68 polygons
usemtl 0_phong1SG
s 0_1
g 0_pCube1
f 3/84/1 42/19/2 43/85/3 1/86/4
f 81/47/5 82/57/6 7/65/7 20/66/8
f 9/62/9 40/17/10 41/18/11 23/61/12
f 24/63/13 25/6/14 15/72/15 10/73/16
f 27/8/17 28/9/18 22/5/19 11/1/20
f 13/80/21 12/2/22 29/10/23 30/68/24
f 15/72/15 25/6/14 26/7/25 18/3/26
f 16/82/27 38/71/28 39/16/29 19/70/30
f 18/3/26 26/7/25 27/8/17 11/1/20
f 19/70/30 39/16/29 40/17/10 9/62/9
f 83/74/31 84/48/32 81/47/5 20/66/8
f 22/5/19 28/9/18 53/27/33 54/28/34
f 56/69/35 23/61/12 41/18/11 55/29/36
f 31/54/37 32/11/38 25/6/14 24/63/13
f 26/7/25 25/6/14 32/11/38 33/12/39
f 27/8/17 26/7/25 33/12/39 34/13/40
f 34/13/40 35/14/41 28/9/18 27/8/17
f 28/9/18 35/14/41 52/26/42 53/27/33
f 30/68/24 29/10/23 36/15/43 37/60/44
f 57/55/45 58/30/46 32/11/38 31/54/37
f 33/12/39 32/11/38 58/30/46 59/31/47
f 34/13/40 33/12/39 59/31/47 60/32/48
f 60/32/48 61/33/49 35/14/41 34/13/40
f 35/14/41 61/33/49 62/34/50 52/26/42
f 37/60/44 36/15/43 64/36/51 65/59/52
f 39/16/29 38/71/28 15/72/15 18/3/26
f 40/17/10 39/16/29 18/3/26 11/1/20
f 41/18/11 40/17/10 11/1/20 22/5/19
f 41/18/11 22/5/19 54/28/34 55/29/36
f 43/85/3 42/19/2 12/2/22 13/80/21
f 79/79/53 80/46/54 50/78/55 2/83/56
f 36/15/43 45/21/57 63/35/58 64/36/51
f 29/10/23 46/22/59 45/21/57 36/15/43
f 12/2/22 47/23/60 46/22/59 29/10/23
f 42/19/2 48/24/61 47/23/60 12/2/22
f 49/81/62 48/24/61 42/19/2 3/84/1
f 62/34/50 63/35/58 45/21/57 52/26/42
f 45/21/57 46/22/59 53/27/33 52/26/42
f 46/22/59 47/23/60 54/28/34 53/27/33
f 47/23/60 48/24/61 55/29/36 54/28/34
f 56/69/35 55/29/36 48/24/61 49/81/62
f 66/58/63 67/37/64 58/30/46 57/55/45
f 59/31/47 58/30/46 67/37/64 68/38/65
f 60/32/48 59/31/47 68/38/65 69/39/66
f 69/39/66 70/40/67 61/33/49 60/32/48
f 61/33/49 70/40/67 71/41/68 62/34/50
f 71/41/68 72/42/69 63/35/58 62/34/50
f 64/36/51 63/35/58 72/42/69 73/43/70
f 65/59/52 64/36/51 73/43/70 74/67/71
f 4/64/72 14/56/73 67/37/64 66/58/63
f 68/38/65 67/37/64 14/56/73 17/51/74
f 69/39/66 68/38/65 17/51/74 8/52/75
f 21/4/76 70/40/67 69/39/66 8/52/75
f 86/50/77 70/40/67 21/4/76
f 44/20/78 72/42/69 71/41/68 51/25/79
f 73/43/70 72/42/69 44/20/78 5/76/80
f 74/67/71 73/43/70 5/76/80 6/77/81
f 44/20/78 76/44/82 75/75/83 5/76/80
f 51/25/79 76/44/82 44/20/78
f 21/4/76 77/45/84 85/49/85 86/50/77
f 8/52/75 78/53/86 77/45/84 21/4/76
f 75/75/83 76/44/82 80/46/54 79/79/53
f 84/48/32 85/49/85 77/45/84 81/47/5
f 77/45/84 78/53/86 82/57/6 81/47/5
f 80/46/54 84/48/32 83/74/31 50/78/55
f 76/44/82 85/49/85 84/48/32 80/46/54
f 86/50/77 85/49/85 76/44/82 51/25/79
f 51/25/79 71/41/68 70/40/67 86/50/77
# totals: 86 86 86 68
